<?xml version="1.0" standalone="no"?>
<!DOCTYPE svg PUBLIC "-//W3C//DTD SVG 20010904//EN"
 "http://www.w3.org/TR/2001/REC-SVG-20010904/DTD/svg10.dtd">
<svg version="1.0" xmlns="http://www.w3.org/2000/svg"
 width="503.000000pt" height="512.000000pt" viewBox="0 0 503.000000 512.000000"
 preserveAspectRatio="xMidYMid meet">

<g transform="translate(0.000000,512.000000) scale(0.100000,-0.100000)"
fill="#000000" stroke="none">
<path d="M687 5000 c-121 -21 -200 -88 -235 -199 -16 -52 -17 -181 -17 -1876
0 -1426 3 -1829 12 -1861 18 -57 51 -103 98 -136 22 -16 465 -207 985 -425
940 -395 945 -397 1015 -397 70 0 75 2 1015 397 520 218 963 409 985 425 47
33 80 79 98 136 9 32 12 435 12 1861 0 1695 -1 1824 -17 1876 -36 114 -113
178 -244 199 -72 12 -3636 11 -3707 0z m3063 -630 c143 -19 224 -80 260 -199
18 -55 20 -92 20 -297 l0 -234 -140 0 -140 0 0 195 c0 266 -9 285 -136 285
-57 0 -90 -12 -111 -39 -9 -12 -12 -170 -13 -663 l0 -647 23 -26 c39 -46 180
-45 219 2 10 12 14 77 18 257 l5 241 140 0 140 0 -1 -270 c0 -252 -2 -274 -22
-325 -30 -76 -72 -124 -140 -157 -57 -28 -58 -28 -252 -28 l-195 0 -68 33
c-77 38 -116 86 -141 174 -15 49 -16 136 -14 769 l3 714 28 57 c58 119 158
163 372 166 39 1 104 -3 145 -8z m-2060 -140 l0 -130 -172 -2 -173 -3 -3 -262
-2 -263 167 -2 168 -3 3 -132 3 -133 -171 0 -170 0 0 -280 0 -280 180 0 181 0
-3 -132 -3 -133 -320 0 -320 0 -3 930 c-1 512 0 936 3 943 3 9 77 12 320 12
l315 0 0 -130z m752 106 c66 -24 131 -85 159 -148 24 -53 24 -54 24 -428 0
-340 -2 -379 -18 -419 -28 -70 -72 -117 -135 -148 -53 -25 -68 -27 -204 -31
l-148 -4 0 -344 0 -345 -142 3 -143 3 -3 943 -2 944 282 -4 c239 -4 290 -7
330 -22z m606 -918 l-3 -943 -142 -3 -143 -3 0 946 0 945 145 0 145 0 -2 -942z
m-1594 -1402 c27 -8 66 -26 87 -41 l40 -26 -42 -52 c-24 -29 -44 -53 -45 -55
-1 -1 -23 9 -50 23 -70 38 -140 32 -190 -15 -45 -45 -61 -100 -45 -160 25 -95
115 -142 210 -109 27 9 31 16 31 45 l0 34 -55 0 -55 0 0 60 0 60 130 0 131 0
-3 -132 -3 -133 -69 -35 c-59 -30 -81 -35 -152 -39 -104 -4 -165 15 -230 72
-66 58 -94 122 -94 218 0 65 4 85 31 139 65 128 224 191 373 146z m2503 -21
c29 -13 56 -31 59 -39 6 -15 -50 -106 -65 -106 -4 0 -26 9 -48 20 -82 39 -163
35 -163 -9 0 -28 16 -37 111 -64 147 -41 191 -82 191 -176 0 -83 -52 -149
-135 -172 -68 -18 -193 -6 -258 25 -29 14 -62 33 -73 40 -20 16 -18 21 37 85
l27 33 62 -31 c94 -47 188 -42 188 11 0 22 -36 40 -124 62 -85 21 -116 37
-149 76 -73 86 -18 235 100 268 59 17 178 6 240 -23z m-1812 -220 c55 -132
109 -259 118 -282 l17 -43 -81 0 -80 0 -21 50 -21 50 -112 0 -113 0 -18 -50
-18 -50 -78 0 c-43 0 -78 3 -78 8 0 4 52 132 117 285 l116 278 75 -3 75 -3
102 -240z m394 187 c19 -31 50 -81 68 -110 l34 -54 67 109 67 108 83 3 82 3 0
-286 0 -285 -75 0 -75 0 -2 163 -3 162 -70 -107 c-38 -60 -73 -108 -76 -108
-4 0 -38 48 -75 108 l-69 107 -3 -162 -2 -163 -75 0 -75 0 0 285 0 285 83 0
82 -1 34 -57z m961 -7 l0 -65 -150 0 -150 0 0 -45 0 -45 135 0 135 0 0 -65 0
-65 -135 0 -135 0 0 -45 0 -45 155 0 155 0 0 -65 0 -65 -230 0 -230 0 0 285 0
285 225 0 225 0 0 -65z m-157 -1181 c3 -4 -177 -67 -402 -142 l-408 -136 -391
135 c-216 74 -392 137 -392 142 0 8 1584 10 1593 1z"/>
<path d="M2120 3754 l0 -346 86 3 c79 4 87 6 110 32 l24 28 0 290 0 290 -25
24 c-22 23 -32 25 -110 25 l-85 0 0 -346z"/>
<path d="M1937 1762 c-15 -37 -27 -71 -27 -75 0 -4 27 -7 59 -7 l60 0 -30 72
c-16 39 -31 73 -33 75 -1 2 -15 -27 -29 -65z"/>
</g>
</svg>
