<?xml version="1.0" standalone="no"?>
<!DOCTYPE svg PUBLIC "-//W3C//DTD SVG 20010904//EN"
 "http://www.w3.org/TR/2001/REC-SVG-20010904/DTD/svg10.dtd">
<svg version="1.0" xmlns="http://www.w3.org/2000/svg"
 width="300.000000pt" height="286.000000pt" viewBox="0 0 300.000000 286.000000"
 preserveAspectRatio="xMidYMid meet">

<g transform="translate(0.000000,286.000000) scale(0.100000,-0.100000)"
fill="#000000" stroke="none">
<path d="M186 2805 c-47 -16 -103 -69 -122 -112 -20 -47 -21 -2477 -1 -2526
19 -44 87 -103 134 -116 53 -15 2553 -15 2607 0 49 14 121 80 138 127 19 54
19 2450 0 2504 -17 47 -89 113 -138 127 -27 8 -436 11 -1309 11 -1054 -1
-1277 -3 -1309 -15z m2624 -67 c26 -14 53 -37 65 -58 20 -35 20 -49 20 -1250
0 -1201 0 -1215 -20 -1250 -12 -21 -39 -44 -65 -57 l-44 -23 -1266 0 -1266 0
-44 22 c-26 14 -53 37 -65 58 -20 35 -20 49 -20 1250 0 1201 0 1215 20 1250
12 21 39 44 65 58 l44 22 1266 0 1266 0 44 -22z"/>
<path d="M432 2272 c-17 -16 -34 -40 -37 -53 -3 -14 -5 -131 -3 -262 l3 -237
33 -32 32 -33 165 -3 165 -3 0 80 0 81 -108 0 c-71 0 -112 4 -120 12 -8 8 -12
57 -12 154 0 180 -6 174 168 174 68 0 132 -5 143 -10 18 -10 19 -24 19 -303 0
-215 -3 -296 -12 -305 -9 -9 -77 -12 -245 -12 l-233 0 0 -80 0 -81 291 3 291
3 34 37 34 38 0 385 c0 323 -2 391 -15 415 -30 59 -36 60 -311 60 l-252 0 -30
-28z"/>
<path d="M1225 2278 c-50 -39 -55 -68 -55 -303 0 -242 6 -271 62 -305 31 -18
50 -20 268 -20 340 0 330 -10 330 325 0 235 -5 264 -55 303 -27 21 -36 22
-275 22 -239 0 -248 -1 -275 -22z m423 -144 c21 -14 22 -22 22 -150 0 -75 -5
-144 -10 -155 -10 -17 -23 -19 -160 -19 -137 0 -150 2 -160 19 -5 11 -10 80
-10 155 0 172 -6 166 170 166 97 0 131 -3 148 -16z"/>
<path d="M2012 2284 c-48 -33 -52 -57 -52 -309 0 -263 3 -280 64 -309 27 -13
66 -16 185 -16 l152 0 -3 78 -3 77 -104 3 c-58 1 -111 8 -118 14 -10 8 -13 49
-13 159 0 140 1 149 21 159 33 18 287 9 299 -10 15 -23 13 -583 -2 -598 -9 -9
-77 -12 -245 -12 l-233 0 0 -80 0 -81 290 3 290 3 32 33 33 32 3 390 c3 429 2
434 -58 465 -44 23 -505 22 -538 -1z"/>
<path d="M449 1183 c-56 -34 -59 -51 -59 -303 0 -336 -15 -320 305 -320 l225
0 0 75 0 75 -168 0 c-129 0 -173 3 -188 14 -17 13 -19 29 -22 138 -2 70 1 135
7 151 l11 27 180 0 180 0 0 80 0 80 -222 0 c-188 0 -227 -3 -249 -17z"/>
<path d="M1120 1187 c-13 -7 -35 -28 -47 -46 -22 -33 -23 -41 -23 -258 0 -188
3 -231 16 -259 29 -61 45 -64 313 -64 l239 0 31 26 c17 14 35 42 41 62 14 52
12 428 -3 472 -7 19 -27 44 -46 57 -33 22 -41 23 -265 23 -165 0 -238 -4 -256
-13z m408 -159 c8 -8 12 -55 12 -147 0 -178 7 -171 -162 -171 -71 0 -138 5
-149 10 -17 10 -19 23 -19 153 0 98 4 147 12 155 17 17 289 17 306 0z"/>
<path d="M1879 1177 c-53 -36 -58 -62 -58 -354 l-1 -263 80 0 80 0 0 228 c0
164 3 231 12 240 7 7 40 12 80 12 l68 0 0 -240 0 -240 80 0 80 0 2 238 3 237
78 3 77 3 0 -241 0 -240 75 0 75 0 0 320 0 320 -349 0 c-346 0 -348 0 -382
-23z"/>
</g>
</svg>
