<?xml version="1.0" standalone="no"?>
<!DOCTYPE svg PUBLIC "-//W3C//DTD SVG 20010904//EN"
 "http://www.w3.org/TR/2001/REC-SVG-20010904/DTD/svg10.dtd">
<svg version="1.0" xmlns="http://www.w3.org/2000/svg"
 width="160.000000pt" height="160.000000pt" viewBox="0 0 160.000000 160.000000"
 preserveAspectRatio="xMidYMid meet">

<g transform="translate(0.000000,160.000000) scale(0.100000,-0.100000)"
fill="#000000" stroke="none">
<path d="M135 1585 c-51 -18 -110 -81 -124 -131 -15 -55 -15 -1254 0 -1309 15
-52 82 -119 134 -134 56 -15 1254 -15 1310 0 52 15 119 82 134 134 15 56 15
1254 0 1310 -15 52 -82 119 -134 134 -27 7 -235 11 -660 11 -508 -1 -627 -3
-660 -15z m726 -211 c30 -9 72 -25 93 -36 48 -24 139 -109 167 -155 11 -18 28
-33 36 -33 83 0 200 -98 227 -190 20 -67 20 -103 0 -169 -19 -66 -81 -136
-149 -167 -58 -28 -156 -32 -209 -10 -31 13 -37 12 -109 -24 -167 -81 -347
-81 -512 0 -63 31 -140 89 -169 128 -22 28 -13 60 20 68 19 5 34 -3 74 -39
102 -92 225 -134 365 -124 93 6 147 24 229 74 l58 36 43 -22 c89 -44 200 -18
252 60 55 84 34 202 -47 257 -34 23 -43 26 -113 37 -31 5 -41 13 -58 46 -30
59 -102 127 -166 156 -206 95 -462 -27 -464 -219 -1 -52 18 -109 40 -122 5 -4
31 35 57 85 70 131 94 137 146 36 l30 -61 29 56 c30 59 56 82 83 72 8 -3 39
-51 68 -107 80 -153 79 -151 61 -176 -27 -40 -54 -23 -102 63 l-45 78 -28 -56
c-29 -57 -56 -80 -81 -70 -8 3 -29 32 -47 66 l-32 60 -41 -73 c-58 -107 -70
-111 -142 -47 -63 56 -85 104 -85 193 0 191 174 343 396 344 39 1 95 -6 125
-15z m-145 -965 c10 -17 -13 -36 -27 -22 -12 12 -4 33 11 33 5 0 12 -5 16 -11z
m-486 -51 l23 -53 23 53 c17 38 29 52 44 52 18 0 20 -6 20 -81 0 -71 -2 -80
-17 -77 -12 2 -20 15 -23 37 l-5 34 -18 -37 c-20 -42 -29 -40 -57 12 l-19 37
-1 -42 c0 -31 -4 -43 -15 -43 -12 0 -15 16 -15 80 0 72 2 80 19 80 13 0 25
-16 41 -52z m355 9 l30 -42 3 43 c3 34 7 42 23 42 18 0 20 -6 17 -77 -2 -46
-8 -78 -15 -80 -6 -2 -26 17 -45 43 l-33 47 -5 -44 c-4 -31 -10 -45 -22 -47
-16 -3 -18 6 -18 77 0 71 2 81 18 81 9 0 31 -19 47 -43z m733 -34 l-3 -77 -43
-3 c-68 -4 -102 44 -66 95 10 14 25 22 45 22 22 0 29 5 29 20 0 13 7 20 20 20
19 0 21 -5 18 -77z m-408 52 c0 -8 5 -15 10 -15 6 0 10 -7 10 -15 0 -8 -4 -15
-10 -15 -5 0 -10 -20 -10 -45 0 -33 -4 -45 -15 -45 -11 0 -15 12 -15 45 0 25
-4 45 -10 45 -5 0 -10 7 -10 15 0 8 5 15 10 15 6 0 10 7 10 15 0 8 7 15 15 15
8 0 15 -7 15 -15z m-506 -47 l14 -33 12 33 c8 20 19 32 31 32 18 0 18 -1 -1
-51 -34 -85 -49 -109 -70 -109 -11 0 -20 7 -20 15 0 8 7 15 15 15 20 0 19 9
-5 65 -24 56 -25 65 -5 65 8 0 21 -15 29 -32z m311 -28 c0 -42 -3 -55 -15 -55
-11 0 -16 14 -18 58 -3 52 -1 58 15 55 15 -3 18 -13 18 -58z m120 44 c20 -21
21 -104 1 -104 -10 0 -16 14 -18 43 -2 34 -7 42 -23 42 -16 0 -21 -8 -25 -39
-8 -66 -30 -57 -30 12 l0 60 40 0 c23 1 46 -6 55 -14z m191 8 c16 -10 34 -48
27 -56 -3 -3 -24 -6 -45 -6 -25 0 -37 -4 -33 -11 4 -6 19 -7 37 -4 22 5 29 4
26 -6 -16 -47 -90 -28 -96 25 -6 47 46 83 84 58z m139 -8 c20 -21 21 -104 1
-104 -10 0 -16 14 -18 43 -2 34 -7 42 -23 42 -16 0 -21 -8 -25 -39 -8 -66 -30
-57 -30 12 l0 60 40 0 c23 1 46 -6 55 -14z m265 -4 c11 -11 20 -26 20 -34 0
-21 -40 -66 -59 -66 -29 0 -61 30 -61 57 0 57 61 82 100 43z m70 -80 c0 -5 -9
-10 -20 -10 -11 0 -20 5 -20 10 0 6 9 10 20 10 11 0 20 -4 20 -10z"/>
<path d="M1226 324 c-9 -22 17 -49 39 -40 10 3 15 15 13 28 -4 29 -42 37 -52
12z"/>
<path d="M975 330 c-4 -6 5 -10 19 -10 14 0 26 5 26 10 0 6 -9 10 -19 10 -11
0 -23 -4 -26 -10z"/>
<path d="M1364 326 c-9 -24 4 -48 23 -44 12 2 18 12 18 28 0 29 -32 41 -41 16z"/>
</g>
</svg>
