<?xml version="1.0" standalone="no"?>
<!DOCTYPE svg PUBLIC "-//W3C//DTD SVG 20010904//EN"
 "http://www.w3.org/TR/2001/REC-SVG-20010904/DTD/svg10.dtd">
<svg version="1.0" xmlns="http://www.w3.org/2000/svg"
 width="300.000000pt" height="168.000000pt" viewBox="0 0 300.000000 168.000000"
 preserveAspectRatio="xMidYMid meet">

<g transform="translate(0.000000,168.000000) scale(0.100000,-0.100000)"
fill="#000000" stroke="none">
<path d="M0 840 l0 -840 1500 0 1500 0 0 840 0 840 -1500 0 -1500 0 0 -840z
m1822 547 c79 -64 101 -145 53 -192 -33 -34 -86 -34 -113 0 l-19 24 -23 -24
c-32 -35 -91 -35 -118 0 l-19 24 -23 -24 c-32 -34 -89 -34 -121 -1 l-23 24
-23 -24 c-38 -41 -103 -30 -131 21 -10 17 -11 17 -12 3 -1 -46 -91 -64 -128
-25 -50 53 -34 118 44 186 l35 31 297 0 c292 -1 297 -1 324 -23z m-487 -237
c25 0 46 7 60 20 l22 20 18 -20 c24 -26 94 -27 126 -1 22 18 23 18 43 0 26
-25 86 -25 118 1 25 19 26 19 43 0 9 -10 29 -20 44 -22 l26 -3 0 -185 c0 -102
-3 -197 -8 -212 -14 -50 -29 -53 -327 -53 -302 0 -311 2 -328 57 -15 49 -21
181 -14 292 l7 100 31 8 c17 4 37 15 44 23 12 14 15 13 35 -5 14 -13 35 -20
60 -20z m-252 -581 c15 -24 1 -49 -27 -49 -34 0 -52 33 -30 55 19 19 43 16 57
-6z m727 6 c20 -25 8 -50 -25 -50 -21 0 -31 5 -33 18 -4 21 14 47 33 47 7 0
18 -7 25 -15z m-280 -34 c0 -35 2 -38 25 -33 70 13 95 -22 95 -133 l0 -75 -35
0 -34 0 -3 73 c-3 66 -5 72 -25 75 -22 3 -23 0 -23 -72 l0 -76 -40 0 -40 0 0
133 c0 74 3 137 7 140 3 4 21 7 40 7 32 0 33 -2 33 -39z m-330 -5 c0 -18 6
-26 22 -28 32 -4 32 -52 0 -56 -21 -3 -23 -8 -20 -50 3 -39 6 -47 23 -47 15 0
20 -7 20 -25 0 -22 -5 -25 -43 -28 -61 -4 -72 8 -72 84 0 50 -3 64 -15 64 -10
0 -15 10 -15 30 0 20 5 30 15 30 9 0 15 9 15 25 0 22 4 25 35 25 30 0 35 -3
35 -24z m-110 -131 l0 -105 -35 0 -35 0 0 105 0 105 35 0 35 0 0 -105z m327
80 c27 -24 28 -25 9 -40 -23 -17 -46 -20 -46 -4 0 6 -10 9 -22 7 -20 -3 -23
-9 -23 -43 l0 -40 43 1 c37 1 43 -2 49 -24 8 -31 -9 -42 -70 -42 -57 0 -92 28
-102 83 -19 98 90 166 162 102z m403 -80 l0 -105 -35 0 -35 0 0 105 0 105 35
0 35 0 0 -105z m191 76 c40 -40 41 -105 3 -150 -22 -27 -32 -31 -72 -31 -71 1
-102 34 -102 110 0 58 42 100 100 100 33 0 48 -6 71 -29z m-281 -126 c6 -8 9
-23 5 -35 -9 -28 -61 -28 -70 0 -8 25 10 50 35 50 10 0 23 -7 30 -15z"/>
<path d="M1291 1071 c-31 -33 -81 -190 -81 -253 0 -42 20 -54 75 -44 33 7 85
55 85 80 0 8 35 12 129 12 l129 0 6 -28 c10 -50 111 -89 144 -56 19 19 15 56
-17 163 -34 113 -66 155 -116 155 -17 0 -40 -7 -51 -15 -26 -20 -162 -20 -188
0 -34 25 -84 19 -115 -14z m251 -88 c42 -41 47 -54 19 -46 -14 4 -20 -1 -23
-18 -2 -19 -9 -23 -38 -23 -29 0 -36 4 -38 23 -3 17 -9 22 -23 18 -10 -3 -19
0 -19 6 0 14 61 77 74 77 6 0 27 -17 48 -37z"/>
<path d="M1916 435 c-19 -49 8 -100 40 -75 24 20 15 84 -12 88 -13 2 -24 -4
-28 -13z"/>
</g>
</svg>
